<svg width="226" height="208" viewBox="0 0 226 208" fill="none" xmlns="http://www.w3.org/2000/svg">
<path d="M124.372 12.4985C124.372 12.4985 105.623 56.7031 56.0401 46.5766C6.45759 36.4501 -23.4158 107.694 23.4603 133.671C70.3364 159.648 37.8501 189.49 69.1132 204.733C104.646 222.057 117.896 164.127 144.074 169.507C201.848 181.382 237.586 161.017 221.783 133.61C194.044 85.5024 173.903 87.2734 182.088 56.2064C190.273 25.1394 144.05 -22.5537 124.372 12.4985Z" fill="#546CE3" fill-opacity="0.2"/>
<path d="M115.321 113.389C110.965 122.16 109.866 126.821 96.6504 135.524C96.5477 135.594 96.4708 135.699 96.4321 135.821C94.3208 142.697 90.7469 148.977 85.9813 154.186C85.9171 154.255 85.8719 154.342 85.8506 154.436C85.8293 154.53 85.8325 154.628 85.86 154.721C87.3391 159.891 88.94 169.214 84.4859 176.855C77.939 188.106 73.0899 181.313 74.0997 178.766C74.9645 176.584 82.3522 171.897 80.6467 160.189C80.6324 160.095 80.5953 160.007 80.5391 159.932C80.4829 159.858 80.4095 159.8 80.3258 159.764C80.2422 159.729 80.1512 159.716 80.0616 159.728C79.972 159.74 79.8867 159.776 79.8141 159.832C74.4593 163.915 68.3134 166.706 61.814 168.009C61.7419 168.021 61.6731 168.05 61.6121 168.092C61.5512 168.135 61.4995 168.19 61.4606 168.255C61.4216 168.32 61.3962 168.393 61.3861 168.469C61.3759 168.545 61.3813 168.623 61.4017 168.697C63.0588 174.928 63.8428 184.668 56.924 193.625C53.2302 198.294 48.3321 191.468 53.2302 186.816C56.2692 183.937 56.0349 175.659 54.6123 169.283C54.5851 169.159 54.5179 169.049 54.422 168.972C54.3262 168.894 54.2077 168.854 54.0869 168.858C53.8041 168.867 53.5129 168.867 53.2302 168.867C43.2328 168.882 33.5131 165.412 25.5955 159C25.5231 158.94 25.4371 158.902 25.3462 158.888C25.2552 158.874 25.1624 158.885 25.0768 158.92C24.9911 158.955 24.9157 159.013 24.8578 159.088C24.8 159.163 24.7617 159.253 24.7468 159.348C22.8473 172.525 30.3888 177.085 31.4634 180.464C32.6597 184.242 29.9115 187.604 26.5249 186.654C26.4515 186.631 26.383 186.593 26.3229 186.543C15.282 177.832 16.2438 159.577 17.4562 150.79C17.4673 150.718 17.4636 150.644 17.4455 150.574C17.4273 150.504 17.3951 150.438 17.351 150.382C11.1767 142.036 7.83402 131.762 7.85385 121.192C7.85385 101.808 18.8706 85.1241 34.6885 77.6779C34.6896 77.678 34.6906 77.6778 34.6916 77.6774C34.6926 77.677 34.6935 77.6764 34.6943 77.6756C34.695 77.6748 34.6956 77.6739 34.696 77.6728C34.6964 77.6718 34.6966 77.6707 34.6966 77.6696C37.1294 74.4342 40.0958 69.8583 40.5486 66.6489C40.5635 66.5402 40.609 66.4386 40.6791 66.3571C40.7493 66.2757 40.841 66.218 40.9425 66.1916C41.044 66.1652 41.1507 66.1711 41.249 66.2087C41.3472 66.2463 41.4326 66.3138 41.4942 66.4026C42.6581 68.0497 44.4606 71.1913 44.0646 74.5026C44.0483 74.6129 44.0404 74.7231 44.0241 74.8336C43.9918 75.0205 43.9514 75.1987 43.911 75.3855C43.8705 75.5299 43.8382 75.6742 43.7897 75.8186C44.355 75.3231 44.8944 74.7959 45.4055 74.2393C46.5935 72.9574 48.097 71.0299 48.7437 68.9668C48.7742 68.8567 48.8366 68.7593 48.922 68.688C49.0075 68.6166 49.1119 68.5749 49.2209 68.5684C49.3298 68.562 49.4381 68.5911 49.5306 68.652C49.6231 68.7128 49.6955 68.8022 49.7376 68.908C50.1576 69.9948 50.651 71.5145 50.8207 73.0682C50.8353 73.2076 50.899 73.3362 50.9991 73.4288C51.0993 73.5215 51.2288 73.5715 51.3622 73.5691C51.9846 73.5437 52.6069 73.5268 53.2294 73.5268C78.2937 73.5268 98.6137 94.8719 98.6137 121.192C98.6137 121.795 98.6056 122.389 98.5813 122.984C98.5777 123.075 98.5953 123.165 98.6324 123.247C98.6695 123.329 98.7251 123.4 98.7944 123.454C98.8636 123.509 98.9445 123.545 99.0299 123.559C99.1153 123.573 99.2027 123.565 99.2845 123.536C101.984 122.542 105.387 120.148 107.44 114.451C111.279 103.838 111.683 100.866 110.471 92.5878C109.259 84.3095 115.119 84.7346 116.331 87.4935C117.543 90.2525 120.171 103.625 115.321 113.389Z" fill="#546CE3"/>
<path d="M35.5038 125.373C35.3492 125.373 35.199 125.319 35.0767 125.22C34.9543 125.121 34.8667 124.982 34.8274 124.825C34.5227 123.426 34.4572 121.982 34.6341 120.56C35.0321 117.468 36.6337 115.196 39.2659 113.988C40.9859 113.199 42.6119 113.153 44.0984 113.853C47.1452 115.288 48.4423 119.355 48.4961 119.527C48.5482 119.711 48.53 119.909 48.4454 120.079C48.3608 120.248 48.2164 120.377 48.0431 120.436C47.8697 120.496 47.6811 120.482 47.5173 120.398C47.3535 120.314 47.2274 120.165 47.1661 119.985C47.155 119.95 46.0013 116.357 43.5216 115.193C42.4114 114.672 41.1683 114.72 39.8267 115.336C37.6487 116.336 36.3705 118.145 36.0278 120.713C35.8712 121.96 35.9236 123.225 36.1826 124.453C36.2292 124.642 36.2026 124.842 36.1087 125.011C36.0147 125.179 35.8611 125.301 35.6814 125.35C35.6234 125.366 35.5637 125.373 35.5038 125.373Z" fill="white"/>
<path d="M56.6053 118.64C56.4586 118.64 56.3157 118.591 56.1966 118.501C56.0776 118.411 55.9885 118.284 55.942 118.138C55.5513 116.769 55.3967 115.338 55.4855 113.912C55.692 110.813 57.1503 108.445 59.7026 107.066C61.3737 106.163 62.9957 106.007 64.5247 106.606C67.6467 107.826 69.1897 111.771 69.2539 111.938C69.3212 112.118 69.3179 112.319 69.2449 112.497C69.1718 112.675 69.0348 112.816 68.8637 112.888C68.6926 112.96 68.5012 112.959 68.3311 112.884C68.161 112.809 68.0259 112.666 67.9554 112.487C67.9414 112.453 66.5723 108.971 64.031 107.982C62.8881 107.536 61.6477 107.668 60.3434 108.374C58.2321 109.515 57.0687 111.398 56.8854 113.971C56.8063 115.219 56.9366 116.472 57.2703 117.673C57.305 117.783 57.3143 117.901 57.2974 118.016C57.2804 118.131 57.2378 118.24 57.1729 118.334C57.1081 118.429 57.0228 118.506 56.9242 118.559C56.8256 118.612 56.7164 118.639 56.6056 118.64H56.6053Z" fill="white"/>
<path d="M54.8242 134.023C50.0598 134.023 46.4271 130.692 46.2452 130.523C46.1765 130.459 46.1205 130.381 46.0803 130.294C46.0401 130.207 46.0167 130.113 46.0112 130.017C46.0058 129.92 46.0185 129.824 46.0486 129.732C46.0786 129.641 46.1255 129.557 46.1866 129.485C46.2476 129.413 46.3216 129.354 46.4043 129.312C46.487 129.269 46.5768 129.245 46.6686 129.239C46.7603 129.233 46.8523 129.247 46.9391 129.278C47.026 129.31 47.1061 129.359 47.1748 129.423C47.2226 129.467 52.0198 133.847 57.421 132.156C62.797 130.473 64.2714 123.303 64.2858 123.231C64.325 123.042 64.4337 122.876 64.5881 122.771C64.7426 122.665 64.9304 122.628 65.1109 122.667C65.2914 122.706 65.4499 122.818 65.5521 122.979C65.6544 123.14 65.692 123.337 65.657 123.527C65.3241 125.012 64.8028 126.444 64.107 127.783C62.5701 130.76 60.397 132.759 57.821 133.565C56.8485 133.87 55.839 134.024 54.8242 134.023Z" fill="white"/>
<path d="M205.719 101.294C205.659 102.891 205.505 104.482 205.257 106.058C201.882 127.744 182.42 142.443 161.776 138.897C141.14 135.354 127.139 114.909 130.514 93.2231C130.729 91.8407 131.014 90.4877 131.35 89.1683C116.039 78.2459 116.934 57.1839 119.869 54.8488C122.833 52.4843 126.069 54.4767 125.731 61.0174C125.383 70.5158 130.95 78.3709 134.038 81.7923C141.267 66.6532 157.244 57.507 173.995 60.3835C190.252 63.175 202.379 76.4502 205.156 92.5504C208.186 91.3932 213.538 88.0535 217.874 78.5603C218.479 76.6683 218.647 75.2775 218.679 74.4399C218.7 73.6574 218.991 72.9096 219.497 72.3351C220.446 71.2934 222.125 70.188 224.293 71.8854C224.786 72.2727 225.184 72.7785 225.452 73.3606C225.721 73.9426 225.853 74.5838 225.837 75.2303C225.701 80.3609 221.792 92.844 205.719 101.294Z" fill="#546CE3"/>
<path d="M183.199 108.327C182.243 114.469 174.201 118.199 165.243 116.661C156.277 115.121 149.785 108.896 150.741 102.754C150.923 101.61 151.348 100.524 151.985 99.5773C152.16 99.321 152.421 99.1445 152.715 99.0843C153.009 99.0241 153.314 99.0848 153.567 99.2538C156.777 101.365 161.857 103.226 167.718 104.232C173.112 105.159 178.104 105.173 181.737 104.449C182.033 104.389 182.339 104.451 182.592 104.623C182.846 104.794 183.027 105.061 183.098 105.368C183.316 106.338 183.351 107.344 183.199 108.327Z" fill="white"/>
<path d="M166.201 96.1406C166.099 96.1408 165.999 96.1177 165.906 96.073C165.814 96.0283 165.732 95.9631 165.667 95.8818C165.601 95.8006 165.552 95.7052 165.525 95.6025C165.498 95.4997 165.492 95.3919 165.509 95.2866C165.744 93.7768 165.398 92.2307 164.548 90.9886C163.698 89.7464 162.413 88.91 160.975 88.6632C159.538 88.4164 158.066 88.7795 156.884 89.6726C155.701 90.5657 154.905 91.9157 154.67 93.4255C154.64 93.618 154.538 93.7901 154.388 93.9039C154.237 94.0177 154.049 94.064 153.866 94.0325C153.683 94.0011 153.519 93.8944 153.411 93.7361C153.302 93.5777 153.258 93.3806 153.288 93.1882C153.583 91.2934 154.582 89.5993 156.066 88.4785C157.55 87.3577 159.397 86.902 161.201 87.2117C163.005 87.5215 164.618 88.5712 165.685 90.13C166.752 91.6888 167.185 93.6291 166.89 95.5238C166.864 95.6959 166.78 95.8523 166.653 95.9653C166.527 96.0782 166.366 96.1404 166.201 96.1406Z" fill="white"/>
<path d="M182.992 99.0242C182.891 99.0241 182.791 99.0009 182.699 98.9561C182.606 98.9113 182.525 98.8461 182.459 98.7649C182.393 98.6836 182.345 98.5884 182.318 98.4857C182.29 98.383 182.285 98.2753 182.301 98.1701C182.53 96.663 182.181 95.1219 181.331 93.8844C180.48 92.6469 179.198 91.8138 177.764 91.5676C176.33 91.3214 174.862 91.6822 173.681 92.5708C172.499 93.4595 171.702 94.8037 171.462 96.309C171.447 96.4045 171.415 96.4961 171.367 96.5785C171.318 96.6609 171.255 96.7325 171.18 96.7891C171.106 96.8457 171.021 96.8863 170.931 96.9085C170.842 96.9307 170.749 96.9341 170.658 96.9185C170.567 96.9028 170.48 96.8685 170.402 96.8175C170.323 96.7665 170.255 96.6997 170.202 96.6211C170.148 96.5424 170.11 96.4534 170.089 96.3591C170.068 96.2649 170.065 96.1672 170.08 96.0718C170.38 94.1818 171.381 92.4939 172.864 91.3778C174.346 90.2617 176.19 89.8085 177.99 90.1176C179.79 90.4267 181.4 91.4729 182.467 93.0268C183.534 94.5807 183.971 96.5156 183.682 98.4074C183.656 98.5795 183.572 98.736 183.445 98.8489C183.319 98.9619 183.158 99.024 182.992 99.0242Z" fill="white"/>
</svg>
