<svg width="36" height="36" viewBox="0 0 36 36" fill="none" xmlns="http://www.w3.org/2000/svg">
<rect width="36" height="36" rx="18" fill="#4BB67D"/>
<path d="M14.3799 18L16.7899 20.42L21.6199 15.58" stroke="white" stroke-width="1.5" stroke-linecap="round" stroke-linejoin="round"/>
<path d="M16.7499 8.45001C17.4399 7.86001 18.5699 7.86001 19.2699 8.45001L20.8499 9.81001C21.1499 10.07 21.7099 10.28 22.1099 10.28H23.8099C24.8699 10.28 25.7399 11.15 25.7399 12.21V13.91C25.7399 14.3 25.9499 14.87 26.2099 15.17L27.5699 16.75C28.1599 17.44 28.1599 18.57 27.5699 19.27L26.2099 20.85C25.9499 21.15 25.7399 21.71 25.7399 22.11V23.81C25.7399 24.87 24.8699 25.74 23.8099 25.74H22.1099C21.7199 25.74 21.1499 25.95 20.8499 26.21L19.2699 27.57C18.5799 28.16 17.4499 28.16 16.7499 27.57L15.1699 26.21C14.8699 25.95 14.3099 25.74 13.9099 25.74H12.1799C11.1199 25.74 10.2499 24.87 10.2499 23.81V22.1C10.2499 21.71 10.0399 21.15 9.78988 20.85L8.43988 19.26C7.85988 18.57 7.85988 17.45 8.43988 16.76L9.78988 15.17C10.0399 14.87 10.2499 14.31 10.2499 13.92V12.2C10.2499 11.14 11.1199 10.27 12.1799 10.27H13.9099C14.2999 10.27 14.8699 10.06 15.1699 9.80001L16.7499 8.45001Z" stroke="white" stroke-width="1.5" stroke-linecap="round" stroke-linejoin="round"/>
</svg>
