<svg width="35" height="27" viewBox="0 0 35 27" fill="none" xmlns="http://www.w3.org/2000/svg">
<g clip-path="url(#clip0_2012_424)">
<path d="M0 0H35V26.25H0" fill="#BD3D44"/>
<path d="M0 3.02423H35H0ZM0 7.0547H35H0ZM0 11.1016H35H0ZM0 15.1484H35H0ZM0 19.1953H35H0ZM0 23.2422H35H0Z" fill="black"/>
<path d="M0 2.01251V4.03595H35V2.01251H0ZM0 6.04298V8.06642H35V6.04298H0ZM0 10.0899V12.1133H35V10.0899H0ZM0 14.1367V16.1602H35V14.1367H0ZM0 18.1836V20.207H35V18.1836H0ZM0 22.2305V24.2539H35V22.2305H0Z" fill="white"/>
<path d="M0 0H19.95V14.1367H0" fill="#192F5D"/>
<path d="M18.2656 11.9219L18.7578 13.3984L17.5 12.4688H19.0312L17.7734 13.3984L18.2656 11.9219ZM14.9844 11.9219L15.4766 13.3984L14.2188 12.4688H15.75L14.4922 13.3984L14.9844 11.9219ZM11.6484 11.9219L12.1406 13.3984L10.8828 12.4688H12.4141L11.1562 13.3984L11.6484 11.9219ZM8.3125 11.9219L8.80469 13.3984L7.54688 12.4688H9.07812L7.82031 13.3984L8.3125 11.9219ZM4.97656 11.9219L5.46875 13.3984L4.21094 12.4688H5.74219L4.48438 13.3984L4.97656 11.9219ZM1.64062 11.9219L2.13281 13.3984L0.875 12.4688H2.40625L1.14844 13.3984L1.64062 11.9219ZM16.625 10.5L17.1172 11.9766L15.8594 11.0469H17.3906L16.1328 11.9766L16.625 10.5ZM13.2891 10.5L13.7812 11.9766L12.5234 11.0469H14.0547L12.7969 11.9766L13.2891 10.5ZM10.0078 10.5L10.5 11.9766L9.24219 11.0469H10.7734L9.51562 11.9766L10.0078 10.5ZM6.67188 10.5L7.16406 11.9766L5.90625 11.0469H7.4375L6.17969 11.9766L6.67188 10.5ZM3.33594 10.5L3.82812 11.9766L2.57031 11.0469H4.10156L2.84375 11.9766L3.33594 10.5ZM18.2656 9.07812L18.7578 10.5547L17.5 9.625H19.0312L17.7734 10.5547L18.2656 9.07812ZM14.9844 9.07812L15.4766 10.5547L14.2188 9.625H15.75L14.4922 10.5547L14.9844 9.07812ZM11.6484 9.07812L12.1406 10.5547L10.8828 9.625H12.4141L11.1562 10.5547L11.6484 9.07812ZM8.3125 9.07812L8.80469 10.5547L7.54688 9.625H9.07812L7.82031 10.5547L8.3125 9.07812ZM4.97656 9.07812L5.46875 10.5547L4.21094 9.625H5.74219L4.48438 10.5547L4.97656 9.07812ZM1.64062 9.07812L2.13281 10.5547L0.875 9.625H2.40625L1.14844 10.5547L1.64062 9.07812ZM16.625 7.71094L17.1172 9.1875L15.8594 8.25781H17.3906L16.1328 9.1875L16.625 7.71094ZM13.2891 7.71094L13.7812 9.1875L12.5234 8.25781H14.0547L12.7969 9.1875L13.2891 7.71094ZM10.0078 7.71094L10.5 9.1875L9.24219 8.25781H10.7734L9.51562 9.1875L10.0078 7.71094ZM6.67188 7.71094L7.16406 9.1875L5.90625 8.25781H7.4375L6.17969 9.1875L6.67188 7.71094ZM3.33594 7.71094L3.82812 9.1875L2.57031 8.25781H4.10156L2.84375 9.1875L3.33594 7.71094ZM18.2656 6.28906L18.7578 7.76562L17.5 6.83594H19.0312L17.7734 7.76562L18.2656 6.28906ZM14.9844 6.28906L15.4766 7.76562L14.2188 6.83594H15.75L14.4922 7.76562L14.9844 6.28906ZM11.6484 6.28906L12.1406 7.76562L10.8828 6.83594H12.4141L11.1562 7.76562L11.6484 6.28906ZM8.3125 6.28906L8.80469 7.76562L7.54688 6.83594H9.07812L7.82031 7.76562L8.3125 6.28906ZM4.97656 6.28906L5.46875 7.76562L4.21094 6.83594H5.74219L4.48438 7.76562L4.97656 6.28906ZM1.64062 6.28906L2.13281 7.76562L0.875 6.83594H2.40625L1.14844 7.76562L1.64062 6.28906ZM16.625 4.86719L17.1172 6.34375L15.8594 5.41406H17.3906L16.1328 6.34375L16.625 4.86719ZM13.2891 4.86719L13.7812 6.34375L12.5234 5.41406H14.0547L12.7969 6.34375L13.2891 4.86719ZM10.0078 4.86719L10.5 6.34375L9.24219 5.41406H10.7734L9.51562 6.34375L10.0078 4.86719ZM6.67188 4.86719L7.16406 6.34375L5.90625 5.41406H7.4375L6.17969 6.34375L6.67188 4.86719ZM3.33594 4.86719L3.82812 6.34375L2.57031 5.41406H4.10156L2.84375 6.34375L3.33594 4.86719ZM18.2656 3.44531L18.7578 4.92188L17.5 3.99219H19.0312L17.7734 4.92188L18.2656 3.44531ZM14.9844 3.44531L15.4766 4.92188L14.2188 3.99219H15.75L14.4922 4.92188L14.9844 3.44531ZM11.6484 3.44531L12.1406 4.92188L10.8828 3.99219H12.4141L11.1562 4.92188L11.6484 3.44531ZM8.3125 3.44531L8.80469 4.92188L7.54688 3.99219H9.07812L7.82031 4.92188L8.3125 3.44531ZM4.97656 3.44531L5.46875 4.92188L4.21094 3.99219H5.74219L4.48438 4.92188L4.97656 3.44531ZM1.64062 3.44531L2.13281 4.92188L0.875 3.99219H2.40625L1.14844 4.92188L1.64062 3.44531ZM16.625 2.02344L17.1172 3.5L15.8594 2.57031H17.3906L16.1328 3.5L16.625 2.02344ZM13.2891 2.02344L13.7812 3.5L12.5234 2.57031H14.0547L12.7969 3.5L13.2891 2.02344ZM10.0078 2.02344L10.5 3.5L9.24219 2.57031H10.7734L9.51562 3.5L10.0078 2.02344ZM6.67188 2.02344L7.16406 3.5L5.90625 2.57031H7.4375L6.17969 3.5L6.67188 2.02344ZM3.33594 2.02344L3.82812 3.5L2.57031 2.57031H4.10156L2.84375 3.5L3.33594 2.02344ZM18.2656 0.601562L18.7578 2.07812L17.5 1.14844H19.0312L17.7734 2.07812L18.2656 0.601562ZM14.9844 0.601562L15.4766 2.07812L14.2188 1.14844H15.75L14.4922 2.07812L14.9844 0.601562ZM11.6484 0.601562L12.1406 2.07812L10.8828 1.14844H12.4141L11.1562 2.07812L11.6484 0.601562ZM8.3125 0.601562L8.80469 2.07812L7.54688 1.14844H9.07812L7.82031 2.07812L8.3125 0.601562ZM4.97656 0.601562L5.46875 2.07812L4.21094 1.14844H5.74219L4.48438 2.07812L4.97656 0.601562ZM1.64062 0.601562L2.13281 2.07812L0.875 1.14844H2.40625L1.14844 2.07812L1.64062 0.601562Z" fill="white"/>
</g>
<defs>
<clipPath id="clip0_2012_424">
<rect width="35" height="26.25" fill="white"/>
</clipPath>
</defs>
</svg>
