<svg width="60" height="60" viewBox="0 0 60 60" fill="none" xmlns="http://www.w3.org/2000/svg">
<rect width="60" height="60" rx="30" fill="#546CE3"/>
<path d="M30 12C25.2261 12 20.6477 13.8964 17.2721 17.2721C13.8964 20.6477 12 25.2261 12 30C12 34.7739 13.8964 39.3523 17.2721 42.7279C20.6477 46.1036 25.2261 48 30 48C34.7739 48 39.3523 46.1036 42.7279 42.7279C46.1036 39.3523 48 34.7739 48 30C48 25.2261 46.1036 20.6477 42.7279 17.2721C39.3523 13.8964 34.7739 12 30 12V12ZM14.22 31.36H19.24C19.32 33.18 19.574 34.988 20 36.76H15.68C14.8744 35.0618 14.3799 33.2328 14.22 31.36ZM31.36 20.56V14.38C33.2874 15.1124 34.8711 16.5392 35.8 18.38C36.21 19.074 36.572 19.796 36.88 20.54L31.36 20.56ZM37.8 23.26C38.264 25.026 38.54 26.836 38.62 28.66H31.36V23.26H37.8ZM28.64 14.38V20.56H23.12C23.4285 19.8154 23.7894 19.0936 24.2 18.4C25.1249 16.5517 26.7092 15.1173 28.64 14.38ZM28.64 23.26V28.66H21.4C21.48 26.836 21.756 25.026 22.22 23.26H28.64ZM19.24 28.64H14.22C14.3799 26.7672 14.8744 24.9382 15.68 23.24H20C19.5732 25.0113 19.3187 26.8197 19.24 28.64ZM21.4 31.36H28.64V36.76H22.22C21.7561 34.9941 21.4812 33.184 21.4 31.36ZM28.66 39.36V45.54C26.7326 44.8076 25.1489 43.3808 24.22 41.54C23.8094 40.8464 23.4485 40.1246 23.14 39.38L28.66 39.36ZM31.36 45.54V39.46H36.88C36.5715 40.2046 36.2106 40.9264 35.8 41.62C34.8711 43.4608 33.2874 44.8876 31.36 45.62V45.54ZM31.36 36.66V31.26H38.6C38.5188 33.084 38.2439 34.8941 37.78 36.66H31.36ZM40.78 31.26H45.8C45.6401 33.1328 45.1456 34.9618 44.34 36.66H40C40.42 34.92 40.674 33.146 40.76 31.36L40.78 31.26ZM40.78 28.56C40.6884 26.7726 40.4272 24.998 40 23.26H44.32C45.126 24.96 45.62 26.788 45.78 28.66L40.78 28.56ZM42.78 20.56H39.2C38.5522 18.7406 37.6134 17.0385 36.42 15.52C38.9088 16.6372 41.0706 18.3721 42.7 20.56H42.78ZM23.58 15.52C22.3866 17.0385 21.4478 18.7406 20.8 20.56H17.3C18.9294 18.3721 21.0912 16.6372 23.58 15.52ZM17.28 39.52H20.8C21.4478 41.3394 22.3866 43.0415 23.58 44.56C21.0844 43.426 18.9219 41.6699 17.3 39.46L17.28 39.52ZM36.4 44.56C37.5934 43.0415 38.5322 41.3394 39.18 39.52H42.7C41.0606 41.6786 38.8997 43.3853 36.42 44.48L36.4 44.56Z" fill="white"/>
</svg>
