<svg width="18" height="18" viewBox="0 0 18 18" fill="none" xmlns="http://www.w3.org/2000/svg">
<path d="M16.5 5.57251V10.0725C16.5 11.1975 16.125 12.135 15.465 12.795C14.8125 13.4475 13.875 13.8225 12.75 13.8225V15.42C12.75 16.02 12.0825 16.38 11.5875 16.05L8.25 13.8225H6.66C6.72 13.5975 6.75 13.365 6.75 13.125C6.75 12.36 6.4575 11.655 5.9775 11.1225C5.4375 10.5075 4.635 10.125 3.75 10.125C2.91 10.125 2.145 10.47 1.5975 11.0325C1.53 10.7325 1.5 10.41 1.5 10.0725V5.57251C1.5 3.32251 3 1.82251 5.25 1.82251H12.75C15 1.82251 16.5 3.32251 16.5 5.57251Z" stroke="#344FD5" stroke-width="1.5" stroke-miterlimit="10" stroke-linecap="round" stroke-linejoin="round"/>
<path d="M6.75 13.125C6.75 14.025 6.35251 14.8275 5.73001 15.375C5.19751 15.84 4.5075 16.125 3.75 16.125C2.0925 16.125 0.75 14.7825 0.75 13.125C0.75 12.18 1.185 11.3325 1.875 10.785C2.3925 10.3725 3.045 10.125 3.75 10.125C5.4075 10.125 6.75 11.4675 6.75 13.125Z" stroke="#344FD5" stroke-width="1.5" stroke-miterlimit="10" stroke-linecap="round" stroke-linejoin="round"/>
<path d="M3.9375 12.1875V13.3125L3 13.875" stroke="#344FD5" stroke-width="1.5" stroke-miterlimit="10" stroke-linecap="round" stroke-linejoin="round"/>
<path d="M6.375 7.875H11.625" stroke="#344FD5" stroke-width="1.5" stroke-miterlimit="10" stroke-linecap="round" stroke-linejoin="round"/>
</svg>
