<svg width="36" height="36" viewBox="0 0 36 36" fill="none" xmlns="http://www.w3.org/2000/svg">
<path d="M5.25 27V10.5C5.25 4.5 6.75 3 12.75 3H23.25C29.25 3 30.75 4.5 30.75 10.5V25.5C30.75 25.71 30.75 25.92 30.735 26.13" fill="#546CE3" fill-opacity="0.3"/>
<path d="M5.25 27V10.5C5.25 4.5 6.75 3 12.75 3H23.25C29.25 3 30.75 4.5 30.75 10.5V25.5C30.75 25.71 30.75 25.92 30.735 26.13" stroke="#546CE3" stroke-width="1.5" stroke-linecap="round" stroke-linejoin="round"/>
<path d="M9.525 22.5H30.75V27.75C30.75 30.645 28.395 33 25.5 33H10.5C7.605 33 5.25 30.645 5.25 27.75V26.775C5.25 24.42 7.17 22.5 9.525 22.5Z" fill="#546CE3" fill-opacity="0.3" stroke="#546CE3" stroke-width="1.5" stroke-linecap="round" stroke-linejoin="round"/>
<path d="M12 10.5H24" stroke="#546CE3" stroke-width="1.5" stroke-linecap="round" stroke-linejoin="round"/>
<path d="M12 15.75H19.5" stroke="#546CE3" stroke-width="1.5" stroke-linecap="round" stroke-linejoin="round"/>
</svg>
