<svg width="16" height="16" viewBox="0 0 16 16" fill="none" xmlns="http://www.w3.org/2000/svg">
<path d="M14 4.66665V11.3333C14 13.3333 13 14.6666 10.6667 14.6666H5.33333C3 14.6666 2 13.3333 2 11.3333V4.66665C2 2.66665 3 1.33331 5.33333 1.33331H10.6667C13 1.33331 14 2.66665 14 4.66665Z" stroke="#292D32" stroke-width="1.5" stroke-miterlimit="10" stroke-linecap="round" stroke-linejoin="round"/>
<path d="M10.3332 1.33331V6.5733C10.3332 6.86664 9.98649 7.0133 9.77315 6.81997L8.22652 5.39333C8.09985 5.27333 7.89982 5.27333 7.77315 5.39333L6.22652 6.81997C6.01319 7.0133 5.6665 6.86664 5.6665 6.5733V1.33331H10.3332Z" stroke="#292D32" stroke-width="1.5" stroke-miterlimit="10" stroke-linecap="round" stroke-linejoin="round"/>
<path d="M8.8335 9.33331H11.6668" stroke="#292D32" stroke-width="1.5" stroke-miterlimit="10" stroke-linecap="round" stroke-linejoin="round"/>
<path d="M6 12H11.6667" stroke="#292D32" stroke-width="1.5" stroke-miterlimit="10" stroke-linecap="round" stroke-linejoin="round"/>
</svg>
