<svg width="16" height="16" viewBox="0 0 16 16" fill="none" xmlns="http://www.w3.org/2000/svg">
<path d="M6.70001 1.68666L2.68668 4.30666C1.40001 5.14666 1.40001 7.02666 2.68668 7.86666L6.70001 10.4867C7.42001 10.96 8.60668 10.96 9.32668 10.4867L13.32 7.86666C14.6 7.02666 14.6 5.15333 13.32 4.31333L9.32668 1.69333C8.60668 1.21333 7.42001 1.21333 6.70001 1.68666Z" stroke="#546CE3" stroke-width="1.5" stroke-linecap="round" stroke-linejoin="round"/>
<path d="M3.75331 8.72L3.74664 11.8467C3.74664 12.6933 4.39998 13.6 5.19998 13.8667L7.32664 14.5733C7.69331 14.6933 8.29998 14.6933 8.67331 14.5733L10.8 13.8667C11.6 13.6 12.2533 12.6933 12.2533 11.8467V8.75333" stroke="#546CE3" stroke-width="1.5" stroke-linecap="round" stroke-linejoin="round"/>
<path d="M14.2667 10V6" stroke="#546CE3" stroke-width="1.5" stroke-linecap="round" stroke-linejoin="round"/>
</svg>
