<svg width="24" height="25" viewBox="0 0 24 25" fill="none" xmlns="http://www.w3.org/2000/svg">
<path d="M18.63 7.64999C18.67 8.25999 18.62 8.94999 18.5 9.71999L17.77 14.41C17.15 18.32 15.34 19.64 11.43 19.03L6.73999 18.29C5.38999 18.08 4.34999 17.72 3.58999 17.18C2.13999 16.17 1.71999 14.51 2.11999 11.95L2.85999 7.25999C3.47999 3.34999 5.28999 2.02999 9.19999 2.63999L13.89 3.37999C17.03 3.86999 18.5 5.14999 18.63 7.64999Z" stroke="#546CE3" stroke-width="1.5" stroke-linecap="round" stroke-linejoin="round"/>
<path d="M20.4998 13.97L18.9998 18.48C17.7498 22.24 15.7498 23.24 11.9898 21.99L7.47984 20.49C5.20984 19.74 3.94984 18.7 3.58984 17.18C4.34984 17.72 5.38984 18.08 6.73984 18.29L11.4298 19.03C15.3398 19.64 17.1498 18.32 17.7698 14.41L18.4998 9.72002C18.6198 8.95002 18.6698 8.26002 18.6298 7.65002C21.0198 8.92002 21.5398 10.84 20.4998 13.97Z" stroke="#546CE3" stroke-width="1.5" stroke-linecap="round" stroke-linejoin="round"/>
<path d="M8.24 9.48C9.20098 9.48 9.98 8.70098 9.98 7.74C9.98 6.77902 9.20098 6 8.24 6C7.27902 6 6.5 6.77902 6.5 7.74C6.5 8.70098 7.27902 9.48 8.24 9.48Z" stroke="#546CE3" stroke-width="1.5" stroke-linecap="round" stroke-linejoin="round"/>
</svg>
