<svg width="35" height="26" viewBox="0 0 35 26" fill="none" xmlns="http://www.w3.org/2000/svg">
<g clip-path="url(#clip0_2012_170)">
<path d="M0 17.3333H35V26H0V17.3333Z" fill="#1EB53A"/>
<path d="M0 0H35V8.66667H0V0Z" fill="#0099B5"/>
<path d="M0 8.32001H35V17.68H0V8.32001Z" fill="#CE1126"/>
<path d="M0 8.84003H35V17.16H0V8.84003Z" fill="white"/>
<path d="M7.35001 7.27998C9.08971 7.27998 10.5 5.88311 10.5 4.15998C10.5 2.43685 9.08971 1.03998 7.35001 1.03998C5.61031 1.03998 4.20001 2.43685 4.20001 4.15998C4.20001 5.88311 5.61031 7.27998 7.35001 7.27998Z" fill="white"/>
<path d="M8.4 7.27998C10.1397 7.27998 11.55 5.88311 11.55 4.15998C11.55 2.43685 10.1397 1.03998 8.4 1.03998C6.6603 1.03998 5.25 2.43685 5.25 4.15998C5.25 5.88311 6.6603 7.27998 8.4 7.27998Z" fill="#0099B5"/>
<path d="M14.2789 6.03308L14.0794 6.62588L14.3839 6.72988" fill="white"/>
<path d="M14.2789 6.03308L14.4784 6.62588L14.1739 6.72988" fill="white"/>
<path d="M14.8778 6.46492L14.2471 6.45875L14.2421 6.77853" fill="white"/>
<path d="M14.8777 6.46459L14.3711 6.83552L14.1766 6.57973" fill="white"/>
<path d="M13.6802 6.46459L14.1868 6.83552L14.3813 6.57973" fill="white"/>
<path d="M13.68 6.46486L14.3107 6.45869L14.3157 6.77847" fill="white"/>
<path d="M14.6495 7.16214L14.4584 6.56633L14.1507 6.65899" fill="white"/>
<path d="M14.6494 7.1622L14.1361 6.79814L14.3202 6.53708" fill="white"/>
<path d="M13.9089 7.1617L14.422 6.79876L14.2369 6.53705" fill="white"/>
<path d="M13.9088 7.16184L14.0986 6.56617L14.407 6.6597" fill="white"/>
<path d="M14.2789 3.53705L14.0794 4.12985L14.3839 4.23385" fill="white"/>
<path d="M14.2789 3.53705L14.4784 4.12985L14.1739 4.23385" fill="white"/>
<path d="M14.8778 3.96888L14.2471 3.96271L14.2421 4.2825" fill="white"/>
<path d="M14.8777 3.96856L14.3711 4.33948L14.1766 4.08369" fill="white"/>
<path d="M13.6802 3.96856L14.1868 4.33948L14.3813 4.08369" fill="white"/>
<path d="M13.68 3.96882L14.3107 3.96265L14.3157 4.28244" fill="white"/>
<path d="M14.6495 4.6661L14.4584 4.0703L14.1507 4.16295" fill="white"/>
<path d="M14.6494 4.66617L14.1361 4.3021L14.3202 4.04104" fill="white"/>
<path d="M13.9089 4.66567L14.422 4.30273L14.2369 4.04101" fill="white"/>
<path d="M13.9088 4.66581L14.0986 4.07014L14.407 4.16367" fill="white"/>
<path d="M14.2789 1.04108L14.0794 1.63388L14.3839 1.73788" fill="white"/>
<path d="M14.2789 1.04108L14.4784 1.63388L14.1739 1.73788" fill="white"/>
<path d="M14.8778 1.47291L14.2471 1.46674L14.2421 1.78652" fill="white"/>
<path d="M14.8777 1.47258L14.3711 1.84351L14.1766 1.58772" fill="white"/>
<path d="M13.6802 1.47258L14.1868 1.84351L14.3813 1.58772" fill="white"/>
<path d="M13.68 1.47285L14.3107 1.46668L14.3157 1.78646" fill="white"/>
<path d="M14.6495 2.17013L14.4584 1.57432L14.1507 1.66698" fill="white"/>
<path d="M14.6494 2.1702L14.1361 1.80613L14.3202 1.54507" fill="white"/>
<path d="M13.9089 2.1697L14.422 1.80676L14.2369 1.54504" fill="white"/>
<path d="M13.9088 2.16984L14.0986 1.57417L14.407 1.6677" fill="white"/>
<path d="M16.7989 6.03308L16.5994 6.62588L16.9039 6.72988" fill="white"/>
<path d="M16.7989 6.03308L16.9984 6.62588L16.6939 6.72988" fill="white"/>
<path d="M17.3978 6.46492L16.7671 6.45875L16.7621 6.77853" fill="white"/>
<path d="M17.3976 6.46459L16.8911 6.83552L16.6966 6.57973" fill="white"/>
<path d="M16.2002 6.46459L16.7068 6.83552L16.9013 6.57973" fill="white"/>
<path d="M16.2 6.46486L16.8307 6.45869L16.8357 6.77847" fill="white"/>
<path d="M17.1695 7.16214L16.9784 6.56633L16.6707 6.65899" fill="white"/>
<path d="M17.1694 7.1622L16.6561 6.79814L16.8402 6.53708" fill="white"/>
<path d="M16.4289 7.1617L16.9419 6.79876L16.7569 6.53705" fill="white"/>
<path d="M16.4288 7.16184L16.6186 6.56617L16.927 6.6597" fill="white"/>
<path d="M16.7989 3.53705L16.5994 4.12985L16.9039 4.23385" fill="white"/>
<path d="M16.7989 3.53705L16.9984 4.12985L16.6939 4.23385" fill="white"/>
<path d="M17.3978 3.96888L16.7671 3.96271L16.7621 4.2825" fill="white"/>
<path d="M17.3976 3.96856L16.8911 4.33948L16.6966 4.08369" fill="white"/>
<path d="M16.2002 3.96856L16.7068 4.33948L16.9013 4.08369" fill="white"/>
<path d="M16.2 3.96882L16.8307 3.96265L16.8357 4.28244" fill="white"/>
<path d="M17.1695 4.6661L16.9784 4.0703L16.6707 4.16295" fill="white"/>
<path d="M17.1694 4.66617L16.6561 4.3021L16.8402 4.04104" fill="white"/>
<path d="M16.4289 4.66567L16.9419 4.30273L16.7569 4.04101" fill="white"/>
<path d="M16.4288 4.66581L16.6186 4.07014L16.927 4.16367" fill="white"/>
<path d="M16.7989 1.04108L16.5994 1.63388L16.9039 1.73788" fill="white"/>
<path d="M16.7989 1.04108L16.9984 1.63388L16.6939 1.73788" fill="white"/>
<path d="M17.3978 1.47291L16.7671 1.46674L16.7621 1.78652" fill="white"/>
<path d="M17.3976 1.47258L16.8911 1.84351L16.6966 1.58772" fill="white"/>
<path d="M16.2002 1.47258L16.7068 1.84351L16.9013 1.58772" fill="white"/>
<path d="M16.2 1.47285L16.8307 1.46668L16.8357 1.78646" fill="white"/>
<path d="M17.1695 2.17013L16.9784 1.57432L16.6707 1.66698" fill="white"/>
<path d="M17.1694 2.1702L16.6561 1.80613L16.8402 1.54507" fill="white"/>
<path d="M16.4289 2.1697L16.9419 1.80676L16.7569 1.54504" fill="white"/>
<path d="M16.4288 2.16984L16.6186 1.57417L16.927 1.6677" fill="white"/>
<path d="M19.3189 6.03308L19.1194 6.62588L19.4239 6.72988" fill="white"/>
<path d="M19.3189 6.03308L19.5184 6.62588L19.2139 6.72988" fill="white"/>
<path d="M19.9178 6.46492L19.2871 6.45875L19.2821 6.77853" fill="white"/>
<path d="M19.9176 6.46459L19.411 6.83552L19.2165 6.57973" fill="white"/>
<path d="M18.7202 6.46459L19.2267 6.83552L19.4212 6.57973" fill="white"/>
<path d="M18.7199 6.46486L19.3507 6.45869L19.3557 6.77847" fill="white"/>
<path d="M19.6895 7.16214L19.4984 6.56633L19.1907 6.65899" fill="white"/>
<path d="M19.6893 7.1622L19.1761 6.79814L19.3601 6.53708" fill="white"/>
<path d="M18.9489 7.1617L19.4619 6.79876L19.2769 6.53705" fill="white"/>
<path d="M18.9488 7.16184L19.1386 6.56617L19.447 6.6597" fill="white"/>
<path d="M19.3189 3.53705L19.1194 4.12985L19.4239 4.23385" fill="white"/>
<path d="M19.3189 3.53705L19.5184 4.12985L19.2139 4.23385" fill="white"/>
<path d="M19.9178 3.96888L19.2871 3.96271L19.2821 4.2825" fill="white"/>
<path d="M19.9176 3.96856L19.411 4.33948L19.2165 4.08369" fill="white"/>
<path d="M18.7202 3.96856L19.2267 4.33948L19.4212 4.08369" fill="white"/>
<path d="M18.7199 3.96882L19.3507 3.96265L19.3557 4.28244" fill="white"/>
<path d="M19.6895 4.6661L19.4984 4.0703L19.1907 4.16295" fill="white"/>
<path d="M19.6893 4.66617L19.1761 4.3021L19.3601 4.04104" fill="white"/>
<path d="M18.9489 4.66567L19.4619 4.30273L19.2769 4.04101" fill="white"/>
<path d="M18.9488 4.66581L19.1386 4.07014L19.447 4.16367" fill="white"/>
<path d="M19.3189 1.04108L19.1194 1.63388L19.4239 1.73788" fill="white"/>
<path d="M19.3189 1.04108L19.5184 1.63388L19.2139 1.73788" fill="white"/>
<path d="M19.9178 1.47291L19.2871 1.46674L19.2821 1.78652" fill="white"/>
<path d="M19.9176 1.47258L19.411 1.84351L19.2165 1.58772" fill="white"/>
<path d="M18.7202 1.47258L19.2267 1.84351L19.4212 1.58772" fill="white"/>
<path d="M18.7199 1.47285L19.3507 1.46668L19.3557 1.78646" fill="white"/>
<path d="M19.6895 2.17013L19.4984 1.57432L19.1907 1.66698" fill="white"/>
<path d="M19.6893 2.1702L19.1761 1.80613L19.3601 1.54507" fill="white"/>
<path d="M18.9489 2.1697L19.4619 1.80676L19.2769 1.54504" fill="white"/>
<path d="M18.9488 2.16984L19.1386 1.57417L19.447 1.6677" fill="white"/>
<path d="M9.2389 6.03308L9.0394 6.62588L9.3439 6.72988" fill="white"/>
<path d="M9.23889 6.03308L9.43839 6.62588L9.13388 6.72988" fill="white"/>
<path d="M9.83783 6.46492L9.2071 6.45875L9.20207 6.77853" fill="white"/>
<path d="M9.83765 6.46459L9.33106 6.83552L9.13656 6.57973" fill="white"/>
<path d="M8.64017 6.46459L9.14675 6.83552L9.34126 6.57973" fill="white"/>
<path d="M8.63996 6.46486L9.27069 6.45869L9.27571 6.77847" fill="white"/>
<path d="M9.60951 7.16214L9.4184 6.56633L9.11074 6.65899" fill="white"/>
<path d="M9.60936 7.1622L9.09608 6.79814L9.28016 6.53708" fill="white"/>
<path d="M8.86887 7.1617L9.38195 6.79876L9.19688 6.53705" fill="white"/>
<path d="M8.86884 7.16184L9.05864 6.56617L9.36704 6.6597" fill="white"/>
<path d="M11.7589 6.03308L11.5594 6.62588L11.8639 6.72988" fill="white"/>
<path d="M11.7589 6.03308L11.9584 6.62588L11.6539 6.72988" fill="white"/>
<path d="M12.3578 6.46492L11.7271 6.45875L11.7221 6.77853" fill="white"/>
<path d="M12.3576 6.46459L11.851 6.83552L11.6565 6.57973" fill="white"/>
<path d="M11.1602 6.46459L11.6667 6.83552L11.8612 6.57973" fill="white"/>
<path d="M11.1599 6.46486L11.7907 6.45869L11.7957 6.77847" fill="white"/>
<path d="M12.1295 7.16214L11.9384 6.56633L11.6307 6.65899" fill="white"/>
<path d="M12.1293 7.1622L11.6161 6.79814L11.8001 6.53708" fill="white"/>
<path d="M11.3889 7.1617L11.9019 6.79876L11.7169 6.53705" fill="white"/>
<path d="M11.3888 7.16184L11.5786 6.56617L11.887 6.6597" fill="white"/>
<path d="M11.7589 3.53705L11.5594 4.12985L11.8639 4.23385" fill="white"/>
<path d="M11.7589 3.53705L11.9584 4.12985L11.6539 4.23385" fill="white"/>
<path d="M12.3578 3.96888L11.7271 3.96271L11.7221 4.2825" fill="white"/>
<path d="M12.3576 3.96856L11.851 4.33948L11.6565 4.08369" fill="white"/>
<path d="M11.1602 3.96856L11.6667 4.33948L11.8612 4.08369" fill="white"/>
<path d="M11.1599 3.96882L11.7907 3.96265L11.7957 4.28244" fill="white"/>
<path d="M12.1295 4.6661L11.9384 4.0703L11.6307 4.16295" fill="white"/>
<path d="M12.1293 4.66617L11.6161 4.3021L11.8001 4.04104" fill="white"/>
<path d="M11.3889 4.66567L11.9019 4.30273L11.7169 4.04101" fill="white"/>
<path d="M11.3888 4.66581L11.5786 4.07014L11.887 4.16367" fill="white"/>
</g>
<defs>
<clipPath id="clip0_2012_170">
<rect width="35" height="26" fill="white"/>
</clipPath>
</defs>
</svg>
