<svg width="46" height="46" viewBox="0 0 46 46" fill="none" xmlns="http://www.w3.org/2000/svg">
<rect width="46" height="46" rx="10" fill="#546CE3" fill-opacity="0.3"/>
<path d="M20 33H26C31 33 33 31 33 26V20C33 15 31 13 26 13H20C15 13 13 15 13 20V26C13 31 15 33 20 33Z" stroke="#546CE3" stroke-width="1.5" stroke-linecap="round" stroke-linejoin="round"/>
<path d="M20.1001 23V21.52C20.1001 19.61 21.4501 18.84 23.1001 19.79L24.3801 20.53L25.6601 21.27C27.3101 22.22 27.3101 23.78 25.6601 24.73L24.3801 25.47L23.1001 26.21C21.4501 27.16 20.1001 26.38 20.1001 24.48V23Z" stroke="#546CE3" stroke-width="1.5" stroke-miterlimit="10" stroke-linecap="round" stroke-linejoin="round"/>
</svg>
